<mxfile host="app.diagrams.net" modified="2021-12-07T10:56:06.234Z" agent="5.0 (Windows NT 10.0; Win64; x64) AppleWebKit/537.36 (KHTML, like Gecko) Chrome/96.0.4664.45 Safari/537.36" etag="ZXBJLlRqwwxnVmIpHTI6" version="15.9.1" type="github">
  <diagram name="Page-1" id="c7558073-3199-34d8-9f00-42111426c3f3">
    <mxGraphModel dx="782" dy="468" grid="1" gridSize="10" guides="1" tooltips="1" connect="1" arrows="1" fold="1" page="1" pageScale="1" pageWidth="826" pageHeight="1169" background="none" math="0" shadow="0">
      <root>
        <mxCell id="0" />
        <mxCell id="1" parent="0" />
        <mxCell id="2" value="&lt;p style=&quot;margin: 0px ; margin-top: 4px ; text-align: center ; text-decoration: underline&quot;&gt;&lt;strong&gt;Process 1&lt;br&gt;&lt;/strong&gt;&lt;/p&gt;&lt;hr&gt;&lt;p style=&quot;margin: 0px ; margin-left: 8px&quot;&gt;从available列&lt;/p&gt;&lt;p style=&quot;margin: 0px ; margin-left: 8px&quot;&gt;表获取连接&lt;/p&gt;" style="verticalAlign=middle;align=center;overflow=fill;fontSize=12;fontFamily=Helvetica;html=1;rounded=1;fontStyle=1;strokeWidth=3;fillColor=#E6FFCC" parent="1" vertex="1">
          <mxGeometry x="236" y="236" width="110" height="90" as="geometry" />
        </mxCell>
        <mxCell id="4" value="connManager" style="whiteSpace=wrap;align=center;verticalAlign=middle;fontStyle=1;strokeWidth=3;fillColor=#FFFFCC" parent="1" vertex="1">
          <mxGeometry x="40" y="251" width="90" height="60" as="geometry" />
        </mxCell>
        <mxCell id="37" value="" style="edgeStyle=none;noEdgeStyle=1;strokeColor=#990000;strokeWidth=2" parent="1" source="4" target="2" edge="1">
          <mxGeometry width="100" height="100" relative="1" as="geometry">
            <mxPoint x="280" y="190" as="sourcePoint" />
            <mxPoint x="380" y="90" as="targetPoint" />
          </mxGeometry>
        </mxCell>
        <mxCell id="52" value="获取连接" style="text;spacingTop=-5;align=center" parent="1" vertex="1">
          <mxGeometry x="165" y="251" width="30" height="20" as="geometry" />
        </mxCell>
        <mxCell id="56" value="" style="edgeStyle=elbowEdgeStyle;elbow=horizontal;strokeColor=#990000;strokeWidth=2" parent="1" source="2" edge="1">
          <mxGeometry width="100" height="100" relative="1" as="geometry">
            <mxPoint x="50" y="500" as="sourcePoint" />
            <mxPoint x="280" y="380" as="targetPoint" />
            <Array as="points">
              <mxPoint x="280" y="360" />
            </Array>
          </mxGeometry>
        </mxCell>
        <mxCell id="60" value="Existing&#xa;documentation" style="text;spacingTop=-5;align=center" parent="1" vertex="1">
          <mxGeometry x="380.0000000000001" y="280.99999999999983" width="30" height="20" as="geometry" />
        </mxCell>
        <mxCell id="S_KTER0IFQF7TMb1484W-97" value="&lt;b&gt;是否失效&lt;/b&gt;" style="rhombus;whiteSpace=wrap;html=1;fillColor=#ffffc0;strokeColor=#33001A;strokeWidth=3;" vertex="1" parent="1">
          <mxGeometry x="240" y="379" width="80" height="40" as="geometry" />
        </mxCell>
        <mxCell id="S_KTER0IFQF7TMb1484W-101" value="" style="edgeStyle=elbowEdgeStyle;elbow=horizontal;strokeColor=#990000;strokeWidth=2" edge="1" parent="1">
          <mxGeometry width="100" height="100" relative="1" as="geometry">
            <mxPoint x="281" y="420" as="sourcePoint" />
            <mxPoint x="281" y="480" as="targetPoint" />
            <Array as="points">
              <mxPoint x="281" y="454" />
            </Array>
          </mxGeometry>
        </mxCell>
        <mxCell id="S_KTER0IFQF7TMb1484W-103" value="是" style="edgeLabel;html=1;align=center;verticalAlign=middle;resizable=0;points=[];" vertex="1" connectable="0" parent="S_KTER0IFQF7TMb1484W-101">
          <mxGeometry x="-0.3464" y="1" relative="1" as="geometry">
            <mxPoint x="9" as="offset" />
          </mxGeometry>
        </mxCell>
        <mxCell id="S_KTER0IFQF7TMb1484W-102" value="" style="edgeStyle=elbowEdgeStyle;elbow=horizontal;strokeColor=#990000;strokeWidth=2;exitX=1;exitY=0.5;exitDx=0;exitDy=0;" edge="1" parent="1" source="S_KTER0IFQF7TMb1484W-97" target="S_KTER0IFQF7TMb1484W-107">
          <mxGeometry width="100" height="100" relative="1" as="geometry">
            <mxPoint x="350" y="352" as="sourcePoint" />
            <mxPoint x="410" y="470" as="targetPoint" />
            <Array as="points">
              <mxPoint x="510" y="470" />
              <mxPoint x="450" y="460" />
              <mxPoint x="410" y="399" />
            </Array>
          </mxGeometry>
        </mxCell>
        <mxCell id="S_KTER0IFQF7TMb1484W-104" value="否" style="edgeLabel;html=1;align=center;verticalAlign=middle;resizable=0;points=[];" vertex="1" connectable="0" parent="S_KTER0IFQF7TMb1484W-102">
          <mxGeometry x="-0.4534" relative="1" as="geometry">
            <mxPoint x="-7" y="-13" as="offset" />
          </mxGeometry>
        </mxCell>
        <mxCell id="S_KTER0IFQF7TMb1484W-107" value="&lt;p style=&quot;margin: 0px ; margin-top: 4px ; text-align: center ; text-decoration: underline&quot;&gt;&lt;strong&gt;Process 1&lt;br&gt;&lt;/strong&gt;&lt;/p&gt;&lt;hr&gt;&lt;p style=&quot;margin: 0px ; margin-left: 8px&quot;&gt;从available删除，&lt;/p&gt;&lt;p style=&quot;margin: 0px ; margin-left: 8px&quot;&gt;在leased添加&lt;/p&gt;" style="verticalAlign=middle;align=center;overflow=fill;fontSize=12;fontFamily=Helvetica;html=1;rounded=1;fontStyle=1;strokeWidth=3;fillColor=#E6FFCC" vertex="1" parent="1">
          <mxGeometry x="450" y="470" width="110" height="80" as="geometry" />
        </mxCell>
        <mxCell id="S_KTER0IFQF7TMb1484W-108" value="&lt;p style=&quot;margin: 0px ; margin-top: 4px ; text-align: center ; text-decoration: underline&quot;&gt;&lt;strong&gt;Process 2&lt;br&gt;&lt;/strong&gt;&lt;/p&gt;&lt;hr&gt;&lt;p style=&quot;margin: 0px ; margin-left: 8px&quot;&gt;释放掉&lt;/p&gt;&lt;span style=&quot;font-family: &amp;#34;calibri&amp;#34; , sans-serif ; font-size: 14px&quot;&gt;r.available&lt;/span&gt;&lt;span lang=&quot;EN-US&quot; style=&quot;font-size: 10.5pt ; font-family: &amp;#34;calibri&amp;#34; , sans-serif&quot;&gt;&amp;nbsp;+ r.leased -&amp;nbsp;&lt;/span&gt;&lt;span lang=&quot;EN-US&quot; style=&quot;font-size: 10.5pt ; font-family: &amp;#34;calibri&amp;#34; , sans-serif&quot;&gt;maxPerRoute&lt;span style=&quot;font-family: &amp;#34;helvetica&amp;#34; ; font-size: 12px&quot;&gt;个连接&lt;/span&gt;&lt;br&gt;&lt;br&gt;&lt;/span&gt;" style="verticalAlign=middle;align=center;overflow=fill;fontSize=12;fontFamily=Helvetica;html=1;rounded=1;fontStyle=1;strokeWidth=3;fillColor=#E6FFCC" vertex="1" parent="1">
          <mxGeometry x="140" y="482" width="280" height="90" as="geometry" />
        </mxCell>
        <mxCell id="S_KTER0IFQF7TMb1484W-109" value="" style="edgeStyle=elbowEdgeStyle;elbow=horizontal;strokeColor=#990000;strokeWidth=2" edge="1" parent="1">
          <mxGeometry width="100" height="100" relative="1" as="geometry">
            <mxPoint x="282" y="572" as="sourcePoint" />
            <mxPoint x="282" y="653" as="targetPoint" />
            <Array as="points">
              <mxPoint x="282" y="606" />
            </Array>
          </mxGeometry>
        </mxCell>
        <mxCell id="S_KTER0IFQF7TMb1484W-111" value="&lt;p style=&quot;margin: 0px ; margin-top: 4px ; text-align: center ; text-decoration: underline&quot;&gt;&lt;strong&gt;Process 3&lt;br&gt;&lt;/strong&gt;&lt;/p&gt;&lt;hr&gt;&lt;p style=&quot;margin: 0px ; margin-left: 8px&quot;&gt;&lt;/p&gt;&lt;span lang=&quot;EN-US&quot; style=&quot;font-size: 10.5pt ; font-family: &amp;#34;calibri&amp;#34; , sans-serif&quot;&gt;&lt;span style=&quot;font-family: &amp;#34;helvetica&amp;#34; ; font-size: 12px&quot;&gt;优先从free里获取连接，获取不到则&lt;br&gt;释放available里的最后一个连接&lt;/span&gt;&lt;br&gt;&lt;/span&gt;" style="verticalAlign=middle;align=center;overflow=fill;fontSize=12;fontFamily=Helvetica;html=1;rounded=1;fontStyle=1;strokeWidth=3;fillColor=#E6FFCC" vertex="1" parent="1">
          <mxGeometry x="170" y="653" width="230" height="90" as="geometry" />
        </mxCell>
        <mxCell id="S_KTER0IFQF7TMb1484W-112" value="&lt;b&gt;是否获取到有效连接&lt;/b&gt;" style="rhombus;whiteSpace=wrap;html=1;fillColor=#ffffc0;strokeColor=#33001A;strokeWidth=3;" vertex="1" parent="1">
          <mxGeometry x="215" y="823" width="130" height="60" as="geometry" />
        </mxCell>
        <mxCell id="S_KTER0IFQF7TMb1484W-113" value="" style="edgeStyle=elbowEdgeStyle;elbow=horizontal;strokeColor=#990000;strokeWidth=2" edge="1" parent="1">
          <mxGeometry width="100" height="100" relative="1" as="geometry">
            <mxPoint x="279.5" y="743" as="sourcePoint" />
            <mxPoint x="279.5" y="824" as="targetPoint" />
            <Array as="points">
              <mxPoint x="279.5" y="777" />
            </Array>
          </mxGeometry>
        </mxCell>
        <mxCell id="S_KTER0IFQF7TMb1484W-114" value="" style="edgeStyle=elbowEdgeStyle;elbow=horizontal;strokeColor=#990000;strokeWidth=2" edge="1" parent="1">
          <mxGeometry width="100" height="100" relative="1" as="geometry">
            <mxPoint x="281.5" y="883" as="sourcePoint" />
            <mxPoint x="282" y="943" as="targetPoint" />
            <Array as="points">
              <mxPoint x="281.5" y="917" />
            </Array>
          </mxGeometry>
        </mxCell>
        <mxCell id="S_KTER0IFQF7TMb1484W-117" value="否" style="edgeLabel;html=1;align=center;verticalAlign=middle;resizable=0;points=[];" vertex="1" connectable="0" parent="S_KTER0IFQF7TMb1484W-114">
          <mxGeometry x="0.2428" y="1" relative="1" as="geometry">
            <mxPoint x="11" y="-14" as="offset" />
          </mxGeometry>
        </mxCell>
        <mxCell id="S_KTER0IFQF7TMb1484W-116" value="" style="edgeStyle=elbowEdgeStyle;elbow=horizontal;strokeColor=#990000;strokeWidth=2;exitX=1;exitY=0.5;exitDx=0;exitDy=0;" edge="1" parent="1" source="S_KTER0IFQF7TMb1484W-112">
          <mxGeometry width="100" height="100" relative="1" as="geometry">
            <mxPoint x="346" y="930" as="sourcePoint" />
            <mxPoint x="280" y="1080" as="targetPoint" />
            <Array as="points">
              <mxPoint x="420" y="930" />
            </Array>
          </mxGeometry>
        </mxCell>
        <mxCell id="S_KTER0IFQF7TMb1484W-118" value="是" style="edgeLabel;html=1;align=center;verticalAlign=middle;resizable=0;points=[];" vertex="1" connectable="0" parent="S_KTER0IFQF7TMb1484W-116">
          <mxGeometry x="-0.5732" y="3" relative="1" as="geometry">
            <mxPoint x="-23" y="-47" as="offset" />
          </mxGeometry>
        </mxCell>
        <mxCell id="S_KTER0IFQF7TMb1484W-119" value="&lt;p style=&quot;margin: 0px ; margin-top: 4px ; text-align: center ; text-decoration: underline&quot;&gt;&lt;strong&gt;Process 4&lt;br&gt;&lt;/strong&gt;&lt;/p&gt;&lt;hr&gt;&lt;p style=&quot;margin: 0px ; margin-left: 8px&quot;&gt;&lt;/p&gt;&lt;span lang=&quot;EN-US&quot;&gt;&lt;font face=&quot;helvetica&quot;&gt;等待&lt;/font&gt;&lt;span lang=&quot;EN-US&quot; style=&quot;font-size: 12.0pt&quot;&gt;connectionRequestTimout&lt;br&gt;&lt;/span&gt;&lt;span style=&quot;font-family: &amp;#34;helvetica&amp;#34;&quot;&gt;或者被通知唤醒&lt;/span&gt;&lt;br&gt;&lt;/span&gt;" style="verticalAlign=middle;align=center;overflow=fill;fontSize=12;fontFamily=Helvetica;html=1;rounded=1;fontStyle=1;strokeWidth=3;fillColor=#E6FFCC" vertex="1" parent="1">
          <mxGeometry x="165" y="943" width="230" height="90" as="geometry" />
        </mxCell>
        <mxCell id="S_KTER0IFQF7TMb1484W-120" value="" style="ellipse;html=1;shape=endState;fillColor=#000000;strokeColor=#ff0000;" vertex="1" parent="1">
          <mxGeometry x="265" y="1169" width="30" height="30" as="geometry" />
        </mxCell>
        <mxCell id="S_KTER0IFQF7TMb1484W-121" value="" style="edgeStyle=elbowEdgeStyle;elbow=horizontal;strokeColor=#990000;strokeWidth=2;entryX=0.5;entryY=0;entryDx=0;entryDy=0;exitX=0.5;exitY=0.967;exitDx=0;exitDy=0;exitPerimeter=0;" edge="1" parent="1" source="S_KTER0IFQF7TMb1484W-119" target="S_KTER0IFQF7TMb1484W-120">
          <mxGeometry width="100" height="100" relative="1" as="geometry">
            <mxPoint x="280" y="1040" as="sourcePoint" />
            <mxPoint x="280" y="1169" as="targetPoint" />
            <Array as="points">
              <mxPoint x="279.5" y="1143" />
            </Array>
          </mxGeometry>
        </mxCell>
        <mxCell id="S_KTER0IFQF7TMb1484W-124" value="" style="edgeStyle=elbowEdgeStyle;elbow=horizontal;strokeColor=#990000;strokeWidth=2;exitX=0.5;exitY=1;exitDx=0;exitDy=0;" edge="1" parent="1" source="S_KTER0IFQF7TMb1484W-107">
          <mxGeometry width="100" height="100" relative="1" as="geometry">
            <mxPoint x="440" y="620" as="sourcePoint" />
            <mxPoint x="280" y="1130" as="targetPoint" />
            <Array as="points">
              <mxPoint x="505" y="630" />
              <mxPoint x="570" y="681" />
              <mxPoint x="530" y="620" />
            </Array>
          </mxGeometry>
        </mxCell>
      </root>
    </mxGraphModel>
  </diagram>
</mxfile>
